# xmcd
# Track frame offsets: 
#        150
#        11645
#        29662
#        43460
#        56350
#        69882
#        85695
#        100850
#        122152
#        133620
#        149137
#        161497
# Disc length: 2340 seconds
# Revision: 0
# Processed by: cddbd v1.4PL0 Copyright (c) Steve Scherf et al.
# Submitted via: ExactAudioCopy v0.90a9
#
DISCID=a809220c
DTITLE=Floyd Cramer - Gospel Classics
DYEAR=1900
DGENRE=
TTITLE0=Blessed Assurance
TTITLE1=Medley: When The Ring The Golden Bells, Rock Of Ages, How Firm
TTITLE1=A Foundation, Just As I Am
TTITLE2=One Day At A Time
TTITLE3=The Old Rugged Cross
TTITLE4=Morning Has Broken
TTITLE5=Medley: Tell Me Why, He Keeps Me Singing, Heavenly Sunlight, L
TTITLE5=ove Lifted Me
TTITLE6=Beautiful Isle
TTITLE7=Medley: Will There Be Any Stars In My Crown, Sweet By And By
TTITLE8=Crying In The Chapel
TTITLE9=Just A Closer Walk With Thee
TTITLE10=His Eye Is On The Sparow
TTITLE11=Medley: O, How I Love Jesus, Just A Little Walk With Jesus, I
TTITLE11='ve Got That Old Time Religion
EXTD=
EXTT0=
EXTT1=
EXTT2=
EXTT3=
EXTT4=
EXTT5=
EXTT6=
EXTT7=
EXTT8=
EXTT9=
EXTT10=
EXTT11=
PLAYORDER=
